<svg width="200" height="42" viewBox="0 0 200 42" fill="none" xmlns="http://www.w3.org/2000/svg">
<path d="M0 33.22H26V7.22H0V33.22ZM37.2549 31.4V13.1949H43.8818C45.9131 13.1949 47.4746 13.5673 48.5664 14.3121C49.6582 15.0569 50.2041 16.1064 50.2041 17.4605C50.2041 18.4423 49.8719 19.3014 49.2075 20.0377C48.5431 20.774 47.6947 21.2861 46.6621 21.5738V21.6246C47.957 21.7854 48.9917 22.2636 49.7661 23.0592C50.5405 23.8548 50.9277 24.8238 50.9277 25.9664C50.9277 27.6337 50.3311 28.9562 49.1377 29.9337C47.9443 30.9112 46.3151 31.4 44.25 31.4H37.2549ZM41.3555 16.2164V20.5328H43.1582C44.0046 20.5328 44.6711 20.3276 45.1577 19.9171C45.6444 19.5066 45.8877 18.9417 45.8877 18.2223C45.8877 16.885 44.889 16.2164 42.8916 16.2164H41.3555ZM41.3555 23.5797V28.3785H43.5771C44.5251 28.3785 45.2677 28.1585 45.8052 27.7184C46.3426 27.2783 46.6113 26.6773 46.6113 25.9156C46.6113 25.1878 46.3468 24.6165 45.8179 24.2018C45.2889 23.787 44.5505 23.5797 43.6025 23.5797H41.3555ZM63.0107 22.0182C62.5283 21.7558 61.9655 21.6246 61.3223 21.6246C60.4505 21.6246 59.7692 21.9441 59.2783 22.5831C58.7874 23.2221 58.542 24.0917 58.542 25.192V31.4H54.5303V18.4H58.542V20.8121H58.5928C59.2275 19.0517 60.3701 18.1715 62.0205 18.1715C62.4437 18.1715 62.7738 18.2223 63.0107 18.3238V22.0182ZM77.4551 26.0426H68.9746C69.11 27.9299 70.2992 28.8736 72.542 28.8736C73.9723 28.8736 75.2292 28.5351 76.3125 27.858V30.7525C75.1107 31.3958 73.5492 31.7174 71.6279 31.7174C69.529 31.7174 67.8997 31.1355 66.7402 29.9718C65.5807 28.808 65.001 27.1852 65.001 25.1031C65.001 22.9449 65.6273 21.2353 66.8799 19.9742C68.1325 18.7132 69.6729 18.0826 71.501 18.0826C73.3968 18.0826 74.8631 18.6454 75.8999 19.7711C76.9367 20.8967 77.4551 22.4244 77.4551 24.3541V26.0426ZM73.7354 23.5797C73.7354 21.7177 72.9821 20.7867 71.4756 20.7867C70.8324 20.7867 70.2759 21.0533 69.8062 21.5865C69.3364 22.1197 69.0508 22.7841 68.9492 23.5797H73.7354ZM99.6689 18.4L95.9238 31.4H91.709L89.792 23.7828C89.665 23.275 89.5931 22.7206 89.5762 22.1197H89.5C89.4408 22.7799 89.3561 23.3173 89.2461 23.732L87.1895 31.4H83.0254L79.3564 18.4H83.4443L85.2344 26.8805C85.319 27.2783 85.3825 27.7607 85.4248 28.3277H85.501C85.5433 27.7353 85.6195 27.2359 85.7295 26.8297L87.9639 18.4H91.7852L93.791 26.8805C93.8418 27.0921 93.901 27.5829 93.9688 28.3531H94.0576C94.0999 27.8622 94.1676 27.3714 94.2607 26.8805L95.9492 18.4H99.6689ZM116.018 30.7525C114.689 31.3958 112.954 31.7174 110.812 31.7174C108.02 31.7174 105.823 30.8964 104.224 29.2545C102.624 27.6126 101.824 25.4247 101.824 22.691C101.824 19.7796 102.723 17.4182 104.522 15.607C106.32 13.7958 108.654 12.8902 111.523 12.8902C113.301 12.8902 114.799 13.1145 116.018 13.5631V17.5113C114.799 16.7835 113.411 16.4195 111.854 16.4195C110.144 16.4195 108.764 16.957 107.715 18.0318C106.665 19.1067 106.141 20.5624 106.141 22.399C106.141 24.1594 106.636 25.5623 107.626 26.6075C108.616 27.6528 109.949 28.1754 111.625 28.1754C113.225 28.1754 114.689 27.7861 116.018 27.0074V30.7525ZM125.993 31.7174C123.826 31.7174 122.123 31.1101 120.883 29.8956C119.643 28.6811 119.023 27.0328 119.023 24.9508C119.023 22.801 119.667 21.1189 120.953 19.9044C122.24 18.6899 123.979 18.0826 126.171 18.0826C128.329 18.0826 130.022 18.6899 131.249 19.9044C132.476 21.1189 133.09 22.7249 133.09 24.7223C133.09 26.8805 132.457 28.5859 131.192 29.8385C129.927 31.0911 128.194 31.7174 125.993 31.7174ZM126.095 21.1549C125.147 21.1549 124.41 21.4807 123.886 22.1324C123.361 22.7841 123.099 23.7066 123.099 24.9C123.099 27.3967 124.106 28.6451 126.12 28.6451C128.041 28.6451 129.002 27.3629 129.002 24.7984C129.002 22.3694 128.033 21.1549 126.095 21.1549ZM145.173 22.0182C144.69 21.7558 144.128 21.6246 143.484 21.6246C142.613 21.6246 141.931 21.9441 141.44 22.5831C140.95 23.2221 140.704 24.0917 140.704 25.192V31.4H136.692V18.4H140.704V20.8121H140.755C141.39 19.0517 142.532 18.1715 144.183 18.1715C144.606 18.1715 144.936 18.2223 145.173 18.3238V22.0182ZM160.671 31.4H156.672V24.1764C156.672 22.162 155.952 21.1549 154.514 21.1549C153.82 21.1549 153.248 21.4215 152.8 21.9547C152.351 22.4879 152.127 23.165 152.127 23.9859V31.4H148.115V18.4H152.127V20.4566H152.178C153.134 18.874 154.526 18.0826 156.354 18.0826C159.232 18.0826 160.671 19.8684 160.671 23.44V31.4ZM176.524 26.0426H168.044C168.179 27.9299 169.368 28.8736 171.611 28.8736C173.042 28.8736 174.299 28.5351 175.382 27.858V30.7525C174.18 31.3958 172.618 31.7174 170.697 31.7174C168.598 31.7174 166.969 31.1355 165.81 29.9718C164.65 28.808 164.07 27.1852 164.07 25.1031C164.07 22.9449 164.697 21.2353 165.949 19.9742C167.202 18.7132 168.742 18.0826 170.57 18.0826C172.466 18.0826 173.932 18.6454 174.969 19.7711C176.006 20.8967 176.524 22.4244 176.524 24.3541V26.0426ZM172.805 23.5797C172.805 21.7177 172.051 20.7867 170.545 20.7867C169.902 20.7867 169.345 21.0533 168.875 21.5865C168.406 22.1197 168.12 22.7841 168.019 23.5797H172.805ZM188.392 22.0182C187.909 21.7558 187.346 21.6246 186.703 21.6246C185.831 21.6246 185.15 21.9441 184.659 22.5831C184.168 23.2221 183.923 24.0917 183.923 25.192V31.4H179.911V18.4H183.923V20.8121H183.974C184.608 19.0517 185.751 18.1715 187.401 18.1715C187.825 18.1715 188.155 18.2223 188.392 18.3238V22.0182Z" fill="#E9B44C"/>
</svg>
